<svg xmlns="http://www.w3.org/2000/svg" xmlns:xlink="http://www.w3.org/1999/xlink" version="1.1" x="30px" y="30px" viewBox="0 0 144.083 180" fill="#0f1070" enable-background="new 0 0 144.083 144" xml:space="preserve"><path d="M72.042,32.691c-21.675,0-39.309,17.634-39.309,39.309s17.634,39.309,39.309,39.309c21.675,0,39.309-17.634,39.309-39.309  S93.716,32.691,72.042,32.691z M75.042,105.167V95.009h-6v10.158C53.065,103.733,40.308,90.976,38.874,75h10.171v-6H38.874  c1.434-15.976,14.191-28.733,30.167-30.167v10.184h6V38.833C91.017,40.267,103.775,53.024,105.208,69H95.038v6h10.171  C103.775,90.976,91.017,103.733,75.042,105.167z"/><circle cx="72.042" cy="72" r="4.799"/></svg>