<?xml version="1.0" encoding="UTF-8"?><svg id="Layer_2" xmlns="http://www.w3.org/2000/svg" viewBox="0 0 594.8 271.39"><defs><style>.cls-1{fill:#c6e6ec;}.cls-1,.cls-2{stroke-width:0px;}.cls-2{fill:#007a8f;}</style></defs><g id="Layer_1-2"><path class="cls-2" d="m0,198.82c50.72,24.33,92.18,29.15,120.73,29.03,75.1-.31,109.64-35.01,180.81-19.39,33.4,7.33,34.11,16.8,65.44,19.39,44.76,3.71,67.46-13.62,117.1-24.24,24.93-5.33,62.19-10.16,110.73-4.79V14.51c-51.72,24.09-94.25,29.78-122.78,30.74-83.21,2.81-116.76-32.29-211.81-22.62-37.53,3.82-42.18,10.29-70.6,8.08C135.94,26.53,114.97.49,65.63,0,40.33-.24,18.13,6.33,0,14.51v184.31Z"/><path class="cls-1" d="m594.8,240.19c-50.72,25.69-92.18,30.78-120.73,30.65-75.1-.33-109.64-36.97-180.81-20.47-33.4,7.74-34.11,17.74-65.44,20.47-44.76,3.91-67.46-14.38-117.1-25.59-24.93-5.63-62.19-10.72-110.73-5.06V45.6c51.72,25.43,94.25,31.44,122.78,32.46,83.21,2.96,116.76-34.09,211.81-23.89,37.53,4.03,42.18,10.87,70.6,8.53,53.67-4.42,74.64-31.9,123.98-32.42,25.3-.26,47.5,6.67,65.63,15.31v194.6Z"/></g></svg>