<svg id="Layer_2" xmlns="http://www.w3.org/2000/svg" viewBox="0 0 594.8 241.11"><defs><style>.cls-1{fill:#c6e6ec;stroke-width:0px;}</style></defs><g id="Layer_1-2"><path class="cls-1" d="m594.8,209.92c-50.72,25.69-92.18,30.78-120.73,30.65-75.1-.33-109.64-36.97-180.81-20.47-33.4,7.74-34.11,17.74-65.44,20.47-44.76,3.91-67.46-14.38-117.1-25.59-24.93-5.63-62.19-10.72-110.73-5.06V15.32c51.72,25.43,94.25,31.44,122.78,32.46,83.21,2.96,116.76-34.09,211.81-23.89,37.53,4.03,42.18,10.87,70.6,8.53C458.86,28.01,479.83.52,529.17,0c25.3-.26,47.5,6.67,65.63,15.31v194.6Z"/></g></svg>