<?xml version="1.0" encoding="UTF-8"?><svg id="Layer_2" xmlns="http://www.w3.org/2000/svg" viewBox="0 0 97.17 63.65"><defs><style>.cls-1{fill:#007a8f;stroke-width:0px;}</style></defs><g id="Layer_1-2"><path class="cls-1" d="m97.1,25.97c-.05.33-.55,3.4-2.91,4.58-4.99,2.5-10.46-7.45-18.92-7.15-6.99.25-12.68,7.36-14.98,12.67-3.13,7.25-2.01,15.94,2.7,23.21,1.22,1.88-.17,4.37-2.41,4.37-16.52,0-33.04,0-49.55,0-.06,0-.2,0-7.56,0H1.38c-.77,0-1.4-.63-1.37-1.4.02-.69.05-1.49.1-2.38,0,0,.37-6.58,1.74-12.72C6.18,27.65,18.24,15.34,18.24,15.34c3.31-3.37,8.94-9.01,18.1-12.49,22.71-8.63,43.43,4.81,48.16,7.87,4.08,2.65,13.55,8.79,12.6,15.25Z"/></g></svg>