<?xml version="1.0" encoding="UTF-8"?><svg id="Layer_2" xmlns="http://www.w3.org/2000/svg" viewBox="0 0 66.95 43.85"><defs><style>.cls-1{fill:#70c7db;stroke-width:0px;}</style></defs><g id="Layer_1-2"><path class="cls-1" d="m66.9,17.89c-.03.23-.38,2.34-2,3.16-3.44,1.72-7.21-5.13-13.04-4.93-4.82.17-8.74,5.07-10.32,8.73-2.16,5-1.38,10.98,1.86,15.99.84,1.3-.12,3.01-1.66,3.01-11.38,0-22.76,0-34.14,0-.04,0-.14,0-5.21,0H.95c-.53,0-.96-.43-.95-.97.01-.47.03-1.03.07-1.64,0,0,.26-4.53,1.2-8.77,2.99-13.43,11.3-21.91,11.3-21.91,2.28-2.32,6.16-6.21,12.47-8.61,15.65-5.95,29.92,3.31,33.18,5.42,2.81,1.83,9.34,6.06,8.68,10.51Z"/></g></svg>